<svg width="20" height="20" viewBox="0 0 20 20" fill="none" xmlns="http://www.w3.org/2000/svg">
<path d="M10 10.8333C11.3807 10.8333 12.5 9.71396 12.5 8.33325C12.5 6.95254 11.3807 5.83325 10 5.83325C8.61929 5.83325 7.5 6.95254 7.5 8.33325C7.5 9.71396 8.61929 10.8333 10 10.8333Z" stroke="#20285B" stroke-width="2" stroke-linecap="round" stroke-linejoin="round"/>
<path d="M10 1.66663C8.23193 1.66663 6.53624 2.36901 5.286 3.61925C4.03575 4.86949 3.33337 6.56518 3.33337 8.33329C3.33337 9.90996 3.66837 10.9416 4.58337 12.0833L10 18.3333L15.4167 12.0833C16.3317 10.9416 16.6667 9.90996 16.6667 8.33329C16.6667 6.56518 15.9643 4.86949 14.7141 3.61925C13.4638 2.36901 11.7681 1.66663 10 1.66663V1.66663Z" stroke="#20285B" stroke-width="2" stroke-linecap="round" stroke-linejoin="round"/>
</svg>
