<svg width="20" height="20" viewBox="0 0 20 20" fill="none" xmlns="http://www.w3.org/2000/svg">
<path d="M15 7.8125V5.625C15 4.29892 14.4732 3.02715 13.5355 2.08947C12.5979 1.15178 11.3261 0.625 10 0.625C8.67392 0.625 7.40215 1.15178 6.46447 2.08947C5.52678 3.02715 5 4.29892 5 5.625V7.8125H3.4375V12.8125C3.4375 16.4311 6.38141 19.375 10 19.375C13.6186 19.375 16.5625 16.4311 16.5625 12.8125V7.8125H15ZM6.25 5.625C6.25 4.63044 6.64509 3.67661 7.34835 2.97335C8.05161 2.27009 9.00544 1.875 10 1.875C10.9946 1.875 11.9484 2.27009 12.6517 2.97335C13.3549 3.67661 13.75 4.63044 13.75 5.625V7.8125H6.25V5.625ZM15.3125 12.8125C15.3125 15.7418 12.9293 18.125 10 18.125C7.0707 18.125 4.6875 15.7418 4.6875 12.8125V9.0625H15.3125V12.8125Z" fill="#20285B"/>
</svg>
