<svg width="20" height="20" viewBox="0 0 20 20" fill="none" xmlns="http://www.w3.org/2000/svg">
<path d="M3.23238 14.9141C3.60082 14.0414 4.13548 13.2486 4.8066 12.5801C5.47567 11.9096 6.26826 11.375 7.14058 11.0059C7.14839 11.002 7.15621 11 7.16402 10.9961C5.94722 10.1172 5.15621 8.68555 5.15621 7.07031C5.15621 4.39453 7.32417 2.22656 9.99995 2.22656C12.6757 2.22656 14.8437 4.39453 14.8437 7.07031C14.8437 8.68555 14.0527 10.1172 12.8359 10.998C12.8437 11.002 12.8515 11.0039 12.8593 11.0078C13.7343 11.377 14.5195 11.9062 15.1933 12.582C15.8638 13.2511 16.3984 14.0437 16.7675 14.916C17.1302 15.77 17.3258 16.6856 17.3437 17.6133C17.3442 17.6341 17.3406 17.6549 17.3329 17.6743C17.3253 17.6937 17.3139 17.7114 17.2993 17.7263C17.2848 17.7412 17.2674 17.7531 17.2482 17.7612C17.2289 17.7693 17.2083 17.7734 17.1875 17.7734H16.0156C15.9296 17.7734 15.8613 17.7051 15.8593 17.6211C15.8203 16.1133 15.2148 14.7012 14.1445 13.6309C13.0371 12.5234 11.5664 11.9141 9.99995 11.9141C8.43355 11.9141 6.96285 12.5234 5.85542 13.6309C4.78511 14.7012 4.17964 16.1133 4.14058 17.6211C4.13863 17.707 4.07027 17.7734 3.98433 17.7734H2.81246C2.79161 17.7734 2.77096 17.7693 2.75175 17.7612C2.73253 17.7531 2.71513 17.7412 2.70057 17.7263C2.68601 17.7114 2.67458 17.6937 2.66696 17.6743C2.65934 17.6549 2.65569 17.6341 2.65621 17.6133C2.67574 16.6797 2.8691 15.7715 3.23238 14.9141ZM9.99995 10.4297C10.8964 10.4297 11.7402 10.0801 12.375 9.44531C13.0097 8.81055 13.3593 7.9668 13.3593 7.07031C13.3593 6.17383 13.0097 5.33008 12.375 4.69531C11.7402 4.06055 10.8964 3.71094 9.99995 3.71094C9.10347 3.71094 8.25972 4.06055 7.62496 4.69531C6.99019 5.33008 6.64058 6.17383 6.64058 7.07031C6.64058 7.9668 6.99019 8.81055 7.62496 9.44531C8.25972 10.0801 9.10347 10.4297 9.99995 10.4297Z" fill="#20285B"/>
</svg>
