<svg width="84" height="84" viewBox="0 0 84 84" fill="none" xmlns="http://www.w3.org/2000/svg">
<path fill-rule="evenodd" clip-rule="evenodd" d="M42 3.5C20.7375 3.5 3.5 20.7375 3.5 42C3.5 63.2625 20.7375 80.5 42 80.5C63.2625 80.5 80.5 63.2625 80.5 42C80.5 20.7375 63.2625 3.5 42 3.5ZM58.688 35.49C58.9953 35.1387 59.2292 34.7296 59.3761 34.2866C59.5229 33.8436 59.5796 33.3757 59.543 32.9104C59.5063 32.4452 59.3769 31.992 59.1625 31.5774C58.9481 31.1629 58.6529 30.7955 58.2944 30.4967C57.9359 30.1979 57.5212 29.9739 57.0748 29.8377C56.6284 29.7016 56.1593 29.6561 55.6951 29.7039C55.2309 29.7517 54.7809 29.8919 54.3716 30.1162C53.9623 30.3405 53.6021 30.6444 53.312 31.01L38.262 49.0665L30.4745 41.2755C29.8144 40.6379 28.9303 40.2852 28.0126 40.2931C27.0949 40.3011 26.2171 40.6692 25.5681 41.3181C24.9192 41.9671 24.5511 42.8449 24.5431 43.7626C24.5352 44.6803 24.8879 45.5644 25.5255 46.2245L36.0255 56.7245C36.3694 57.0682 36.7811 57.3365 37.2345 57.5122C37.6878 57.688 38.1727 57.7673 38.6584 57.7453C39.1441 57.7232 39.6199 57.6002 40.0554 57.3841C40.491 57.1679 40.8767 56.8634 41.188 56.49L58.688 35.49Z" fill="#EC2531"/>
</svg>
