<?xml version="1.0" standalone="no"?>
<!DOCTYPE svg PUBLIC "-//W3C//DTD SVG 20010904//EN"
 "http://www.w3.org/TR/2001/REC-SVG-20010904/DTD/svg10.dtd">
<svg version="1.0" xmlns="http://www.w3.org/2000/svg"
 width="260.000000pt" height="260.000000pt" viewBox="0 0 260.000000 260.000000"
 preserveAspectRatio="xMidYMid meet">
<metadata>
Created by potrace 1.14, written by Peter Selinger 2001-2017
</metadata>
<g transform="translate(0.000000,260.000000) scale(0.100000,-0.100000)"
fill="#000000" stroke="none">
<path d="M152 2333 l3 -207 220 0 220 0 3 207 2 207 -225 0 -225 0 2 -207z"/>
<path d="M757 2392 c-2 -4 -4 -97 -3 -207 l1 -200 290 -1 c225 -1 310 -6 379
-19 200 -37 342 -127 446 -281 91 -138 131 -289 126 -479 -5 -162 -42 -286
-122 -407 -81 -121 -191 -204 -336 -254 -107 -36 -143 -39 -478 -39 l-305 0 0
735 c0 404 -3 737 -6 740 -4 3 -105 5 -226 5 l-218 0 0 -953 c-1 -649 3 -952
10 -953 55 -4 1002 0 1069 5 234 17 458 96 624 218 278 205 440 548 440 931 0
209 -41 387 -128 562 -162 326 -435 518 -835 586 -75 13 -722 22 -728 11z"/>
</g>
</svg>
